<?xml version="1.0" encoding="utf-8"?>
<!-- Generator: Adobe Illustrator 15.0.0, SVG Export Plug-In . SVG Version: 6.00 Build 0)  -->
<!DOCTYPE svg PUBLIC "-//W3C//DTD SVG 1.1//EN" "http://www.w3.org/Graphics/SVG/1.1/DTD/svg11.dtd">
<svg version="1.1" id="图层_1" xmlns="http://www.w3.org/2000/svg" xmlns:xlink="http://www.w3.org/1999/xlink" x="0px" y="0px"
	 width="28px" height="28px" viewBox="0 0 28 28" enable-background="new 0 0 28 28" xml:space="preserve">
<g>
	<path fill="#1689E5" d="M26.538,1.002c0.192,0.02,0.398,0.193,0.419,0.42l-0.97,9.46L10.043,26.868C9.928,26.982,9.79,27,9.718,27
		s-0.211-0.018-0.324-0.13l-8.222-8.263c-0.115-0.115-0.132-0.254-0.132-0.325c0-0.072,0.017-0.212,0.132-0.326L17.118,2.009
		L26.538,1.002 M26.502,0l-9.84,1.053L0.466,17.249c-0.567,0.567-0.567,1.499,0,2.065l8.22,8.261C8.969,27.857,9.344,28,9.719,28
		s0.749-0.143,1.032-0.425l16.196-16.238l1.013-9.879C27.959,0.648,27.271,0,26.502,0L26.502,0z"/>
</g>
<g>
	<path fill="#1689E5" d="M21.805,5.454c0.387,0,0.7,0.313,0.7,0.7c0,0.388-0.313,0.701-0.7,0.701s-0.701-0.313-0.701-0.701
		C21.104,5.768,21.418,5.454,21.805,5.454 M21.805,4.454c-0.938,0-1.701,0.761-1.701,1.7s0.763,1.701,1.701,1.701
		s1.7-0.762,1.7-1.701S22.743,4.454,21.805,4.454L21.805,4.454z"/>
</g>
</svg>
