<?xml version="1.0" encoding="utf-8"?>
<!-- Generator: Adobe Illustrator 15.0.0, SVG Export Plug-In . SVG Version: 6.00 Build 0)  -->
<!DOCTYPE svg PUBLIC "-//W3C//DTD SVG 1.1//EN" "http://www.w3.org/Graphics/SVG/1.1/DTD/svg11.dtd">
<svg version="1.1" id="图层_1" xmlns="http://www.w3.org/2000/svg" xmlns:xlink="http://www.w3.org/1999/xlink" x="0px" y="0px"
	 width="28px" height="28px" viewBox="0 0 28 28" enable-background="new 0 0 28 28" xml:space="preserve">
<g>
	<path fill="#1689E5" d="M24.253,18.424h-3.714v-0.986h3.714c1.497,0,2.761-1.264,2.761-2.762V5.055
		c0-1.497-1.264-2.761-2.761-2.761h-13.76c-1.497,0-2.762,1.265-2.762,2.761v1.061H6.747V5.055c0-2.031,1.716-3.747,3.747-3.747
		h13.76C26.285,1.308,28,3.024,28,5.055v9.621C27.999,16.707,26.284,18.424,24.253,18.424z"/>
</g>
<g>
	<path fill="#1689E5" d="M17.393,6.821c1.267,0,2.335,1.068,2.335,2.332v9.857c0,1.266-1.068,2.334-2.342,2.334l-5.398,0.035
		l-0.217,0.002l-0.196,0.092L3.11,25.387l1.547-2.521l0.934-1.521H3.805H3.334C2.069,21.344,1,20.275,1,19.01V9.153
		c0-1.265,1.069-2.332,2.334-2.332h3.66H17.393 M17.393,5.821H6.994h-3.66C1.522,5.821,0,7.342,0,9.153v9.857
		c0,1.813,1.522,3.334,3.334,3.334h0.471l-1.667,2.717c-0.623,1.037-0.54,1.631,0.117,1.631c0.26,0,0.611-0.094,1.043-0.289
		l8.696-4.021l5.398-0.037c1.813,0,3.335-1.521,3.335-3.334V9.155C20.728,7.342,19.205,5.821,17.393,5.821L17.393,5.821z"/>
</g>
</svg>
