<?xml version="1.0" encoding="utf-8"?>
<!-- Generator: Adobe Illustrator 15.0.0, SVG Export Plug-In . SVG Version: 6.00 Build 0)  -->
<!DOCTYPE svg PUBLIC "-//W3C//DTD SVG 1.1//EN" "http://www.w3.org/Graphics/SVG/1.1/DTD/svg11.dtd">
<svg version="1.1" id="图层_1" xmlns="http://www.w3.org/2000/svg" xmlns:xlink="http://www.w3.org/1999/xlink" x="0px" y="0px"
	 width="28px" height="28px" viewBox="0 0 28 28" enable-background="new 0 0 28 28" xml:space="preserve">
<g>
	<path fill="#1689E5" d="M5.934,17.169c0.079,0,0.188,0.107,0.188,0.188v8.418c0,0.115-0.109,0.188-0.188,0.188H1.188
		C1.109,25.962,1,25.892,1,25.774v-8.418c0-0.115,0.107-0.188,0.188-0.188H5.934 M5.934,16.169H1.188
		C0.557,16.169,0,16.688,0,17.356v8.418c0,0.668,0.557,1.188,1.188,1.188h4.746c0.632,0,1.188-0.52,1.188-1.188v-8.418
		C7.121,16.726,6.564,16.169,5.934,16.169L5.934,16.169z"/>
</g>
<g>
	<path fill="#1689E5" d="M16.318,11.013c0.074,0,0.137,0.002,0.187,0.004v14.756c0,0.115-0.11,0.188-0.187,0.188H11.57
		c-0.078,0-0.188-0.071-0.188-0.188V11.019c0.05-0.004,0.111-0.006,0.188-0.006H16.318 M16.318,10.013H11.57
		c-0.667,0-1.188,0.147-1.188,0.778v14.981c0,0.668,0.557,1.188,1.188,1.188h4.748c0.63,0,1.187-0.521,1.187-1.188V10.791
		C17.505,10.124,16.948,10.013,16.318,10.013L16.318,10.013z"/>
</g>
<g>
	<path fill="#1689E5" d="M26.813,2.038C26.927,2.038,27,2.147,27,2.226v23.549c0,0.115-0.071,0.188-0.188,0.188h-4.746
		c-0.115,0-0.188-0.072-0.188-0.188V2.226c0-0.115,0.071-0.188,0.188-0.188H26.813 M26.813,1.038h-4.746
		c-0.668,0-1.188,0.52-1.188,1.188v23.549c0,0.668,0.52,1.188,1.188,1.188h4.746c0.668,0,1.188-0.52,1.188-1.188V2.226
		C28,1.595,27.48,1.038,26.813,1.038L26.813,1.038z"/>
</g>
</svg>
